<svg xmlns="http://www.w3.org/2000/svg" viewBox="0 0 64 64">
  <defs>
    <linearGradient id="grad1" x1="0%" y1="0%" x2="100%" y2="100%">
      <stop offset="0%" style="stop-color:#667eea;stop-opacity:1" />
      <stop offset="100%" style="stop-color:#764ba2;stop-opacity:1" />
    </linearGradient>
  </defs>
  
  <!-- Background -->
  <rect width="64" height="64" rx="12" fill="url(#grad1)"/>
  
  <!-- Sudoku Grid -->
  <g stroke="#ffffff" stroke-width="1.5" fill="none">
    <!-- Vertical lines -->
    <line x1="20" y1="12" x2="20" y2="52"/>
    <line x1="28" y1="12" x2="28" y2="52"/>
    <line x1="36" y1="12" x2="36" y2="52"/>
    <line x1="44" y1="12" x2="44" y2="52"/>
    
    <!-- Horizontal lines -->
    <line x1="12" y1="20" x2="52" y2="20"/>
    <line x1="12" y1="28" x2="52" y2="28"/>
    <line x1="12" y1="36" x2="52" y2="36"/>
    <line x1="12" y1="44" x2="52" y2="44"/>
  </g>
  
  <!-- Bold grid lines -->
  <g stroke="#ffffff" stroke-width="3" fill="none">
    <rect x="12" y="12" width="40" height="40"/>
    <line x1="12" y1="28" x2="52" y2="28"/>
    <line x1="12" y1="44" x2="52" y2="44"/>
    <line x1="28" y1="12" x2="28" y2="52"/>
    <line x1="44" y1="12" x2="44" y2="52"/>
  </g>
  
  <!-- Numbers -->
  <g fill="#ffffff" font-family="Arial, sans-serif" font-weight="bold" font-size="10" text-anchor="middle">
    <text x="16" y="18">5</text>
    <text x="24" y="18">3</text>
    <text x="40" y="18">7</text>
    <text x="16" y="26">6</text>
    <text x="32" y="26">1</text>
    <text x="40" y="26">9</text>
    <text x="24" y="34">9</text>
    <text x="32" y="34">8</text>
    <text x="24" y="42">6</text>
    <text x="40" y="42">3</text>
    <text x="16" y="50">4</text>
    <text x="32" y="50">7</text>
    <text x="48" y="50">2</text>
  </g>
</svg>
